<?xml version="1.0" encoding="utf-8"?>
<!-- Generator: Adobe Illustrator 16.0.4, SVG Export Plug-In . SVG Version: 6.00 Build 0)  -->
<!DOCTYPE svg PUBLIC "-//W3C//DTD SVG 1.1//EN" "http://www.w3.org/Graphics/SVG/1.1/DTD/svg11.dtd">
<svg version="1.1" id="Ebene_1" xmlns="http://www.w3.org/2000/svg" xmlns:xlink="http://www.w3.org/1999/xlink" x="0px" y="0px"
	 width="272px" height="388px" viewBox="0 0 272 388" enable-background="new 0 0 272 388" xml:space="preserve">
<g>
	<g>
		<defs>
			<rect id="SVGID_1_" x="0.188" y="0.669" width="271.623" height="386.661"/>
		</defs>
		<clipPath id="SVGID_2_">
			<use xlink:href="#SVGID_1_"  overflow="visible"/>
		</clipPath>
		<path clip-path="url(#SVGID_2_)" fill="#FAC0BE" d="M83.337,172.017L113.62,64.938c0.786,2.396,1.225,3.92,1.225,3.92
			l28.082,103.305L83.337,172.017z M251.05,274.33l-22.946-17.166L171.759,51.28c-0.538-1.484-1.182-3.053-1.92-4.604l13.646-36.101
			l-5.045-1.905l-11.99,31.768C154.566,21.355,127.873,0.769,81.956,0.669C28.021,0.545,16.547,35.984,16.478,56.12
			c-0.03,13.768,4.317,48.446,42.664,45.771C96.366,99.335,91.69,57.335,91.69,57.335l-3.459-0.013c0,0-7.362,23.744-32.238,23.679
			c-22.462-0.041-33.902-12.67-33.868-29.075c0.031-12.909,7.287-38.222,40.048-38.158c26.346,0.063,41.446,26.447,48.234,42.68
			L59.08,237.907C12.613,241.379,0.274,282.33,0.188,312.08c-0.092,37.312,26.93,75.146,71.828,75.25
			c71.968,0.162,69.953-79.83,69.953-79.83l-4.103-0.014c-3.746,21.742-16.81,54.084-66.459,53.957
			c-44.683-0.096-65.782-17.31-65.71-48.371c0.061-26.975,28.082-25.844,39.375-23.231c21.331,4.914,35.673,19.679,43.062,34.091
			l36.601-57.336c0,0-26.593-28.931-59.036-29.021c-0.314,0-0.615,0.054-0.916,0.054l7.622-26.998l81.021,0.188l24,88.354
			l24.678,23.172l4.156-3.947l65.549-54.244l-3.457-4.166L251.05,274.33z"/>
	</g>
</g>
</svg>
