<?xml version="1.0" encoding="utf-8"?>
<!-- Generator: Adobe Illustrator 16.0.4, SVG Export Plug-In . SVG Version: 6.00 Build 0)  -->
<!DOCTYPE svg PUBLIC "-//W3C//DTD SVG 1.1//EN" "http://www.w3.org/Graphics/SVG/1.1/DTD/svg11.dtd">
<svg version="1.1" id="goldstars" xmlns="http://www.w3.org/2000/svg" xmlns:xlink="http://www.w3.org/1999/xlink" x="0px" y="0px"
  width="831.031px" height="1110.3px" viewBox="0 0 831.031 1110.3" enable-background="new 0 0 831.031 1110.3"
  xml:space="preserve">

<!-- 1 -->
	<path display="none" fill="#d0a761" d="M142.193,37.843c-1.573-1.616-3.215-3.308-4.882-5.021c2.39-0.074,4.748-0.146,7.003-0.216
		c3.634-0.114,7.024-0.494,9.928-0.676c5.815-0.518,9.695-1.159,9.695-1.159s-3.887-0.579-9.702-0.992
		c-2.914-0.125-6.321-0.465-9.959-0.505c-2.258-0.025-4.614-0.058-7-0.091c1.637-1.741,3.251-3.46,4.797-5.111
		c2.499-2.646,4.624-5.312,6.546-7.499c3.746-4.483,6.038-7.672,6.038-7.672s-3.159,2.334-7.576,6.164
		c-2.141,1.961-4.771,4.14-7.38,6.678c-1.618,1.574-3.303,3.214-5.015,4.877c-0.071-2.382-0.142-4.736-0.216-7
		c-0.108-3.626-0.5-7.023-0.681-9.927c-0.524-5.815-1.147-9.694-1.147-9.694s-0.588,3.895-0.999,9.707
		c-0.138,2.914-0.465,6.317-0.505,9.96c-0.024,2.249-0.062,4.598-0.096,6.979c-4.529-4.271-8.938-8.335-12.601-11.333
		c-4.481-3.747-7.676-6.028-7.676-6.028s2.326,3.166,6.169,7.566c3.051,3.608,7.175,7.945,11.531,12.395
		c-6.227,0.184-12.214,0.437-16.915,0.898c-5.824,0.513-9.683,1.17-9.683,1.17s3.879,0.581,9.711,0.999
		c4.7,0.378,10.685,0.526,16.902,0.604c-4.258,4.528-8.308,8.931-11.296,12.584c-3.755,4.479-6.049,7.673-6.049,7.673
		s3.172-2.334,7.589-6.164c3.606-3.056,7.938-7.18,12.382-11.525c0.182,6.216,0.432,12.192,0.91,16.908
		c0.501,5.814,1.146,9.683,1.146,9.683s0.587-3.883,0.999-9.724c0.388-4.705,0.542-10.691,0.616-16.921
		c1.733,1.633,3.445,3.244,5.085,4.792c2.641,2.477,5.316,4.618,7.501,6.534c4.481,3.752,7.676,6.04,7.676,6.04
		s-2.34-3.161-6.179-7.571C146.913,43.075,144.737,40.441,142.193,37.843z">
		<animate id="goldstart" attributeName="display" to="block" begin="indefinite"/>
	</path>
	
<!-- 2 -->
	<path display="none" fill="#d0a761" d="M40.312,129.496c-1.566-1.618-3.205-3.309-4.87-5.023c2.385-0.076,4.742-0.149,7.002-0.219
		c3.634-0.108,7.026-0.482,9.94-0.67c5.792-0.519,9.684-1.165,9.684-1.165s-3.889-0.575-9.701-0.985
		c-2.914-0.133-6.324-0.454-9.949-0.506c-2.26-0.025-4.618-0.056-7.008-0.089c1.636-1.741,3.253-3.459,4.806-5.107
		c2.488-2.645,4.622-5.315,6.544-7.499c3.734-4.484,6.029-7.672,6.029-7.672s-3.16,2.333-7.566,6.157
		c-2.153,1.975-4.77,4.147-7.378,6.679c-1.621,1.576-3.309,3.22-5.023,4.888c-0.077-2.386-0.15-4.741-0.21-6.999
		c-0.121-3.637-0.501-7.028-0.682-9.932c-0.525-5.815-1.17-9.696-1.17-9.696s-0.562,3.89-0.985,9.708
		c-0.127,2.92-0.466,6.319-0.506,9.949c-0.026,2.257-0.06,4.604-0.093,6.984c-4.536-4.272-8.945-8.323-12.614-11.328
		c-4.46-3.751-7.667-6.023-7.667-6.023s2.34,3.156,6.17,7.56c3.052,3.604,7.183,7.94,11.529,12.39
		c-6.218,0.184-12.202,0.437-16.9,0.898c-5.816,0.512-9.695,1.169-9.695,1.169s3.89,0.582,9.713,0.999
		c4.709,0.378,10.688,0.526,16.909,0.604c-4.267,4.527-8.316,8.932-11.303,12.585c-3.769,4.471-6.038,7.678-6.038,7.678
		s3.168-2.333,7.564-6.169c3.607-3.049,7.944-7.174,12.396-11.52c0.185,6.218,0.437,12.192,0.898,16.901
		c0.501,5.814,1.17,9.691,1.17,9.691s0.586-3.884,0.996-9.719c0.391-4.709,0.528-10.702,0.608-16.928
		c1.733,1.631,3.443,3.239,5.083,4.783c2.651,2.493,5.327,4.617,7.509,6.545c4.461,3.745,7.68,6.029,7.68,6.029
		s-2.339-3.155-6.182-7.567C45.035,134.728,42.868,132.094,40.312,129.496z">
	  <set attributeName="display" to="block" begin="goldstart.begin+.1s"/>
	</path>

<!-- 3 -->
	<path display="none" fill="#d0a761" d="M243.989,131.801c-1.58-1.621-3.225-3.312-4.889-5.025c2.382-0.072,4.732-0.145,7-0.218
		c3.632-0.101,7.023-0.488,9.927-0.671c5.815-0.523,9.695-1.158,9.695-1.158s-3.877-0.579-9.702-0.997
		c-2.914-0.126-6.31-0.454-9.949-0.494c-2.26-0.029-4.617-0.063-7.007-0.099c1.636-1.739,3.249-3.456,4.796-5.109
		c2.498-2.639,4.623-5.315,6.544-7.505c3.758-4.471,6.028-7.667,6.028-7.667s-3.148,2.341-7.567,6.164
		c-2.141,1.969-4.77,4.141-7.368,6.679c-1.623,1.582-3.315,3.228-5.03,4.894c-0.075-2.388-0.149-4.747-0.223-7.011
		c-0.108-3.632-0.477-7.029-0.672-9.933c-0.51-5.808-1.168-9.695-1.168-9.695s-0.564,3.889-0.974,9.713
		c-0.139,2.909-0.456,6.313-0.508,9.95c-0.025,2.254-0.054,4.602-0.086,6.984c-4.547-4.272-8.956-8.333-12.607-11.329
		c-4.471-3.757-7.68-6.028-7.68-6.028s2.339,3.161,6.159,7.565c3.059,3.599,7.185,7.936,11.526,12.385
		c-6.214,0.186-12.182,0.442-16.885,0.902c-5.825,0.513-9.694,1.166-9.694,1.166s3.875,0.585,9.699,0.997
		c4.713,0.384,10.702,0.524,16.932,0.6c-4.274,4.533-8.329,8.939-11.327,12.588c-3.745,4.484-6.014,7.691-6.014,7.691
		s3.148-2.34,7.552-6.176c3.61-3.057,7.945-7.182,12.398-11.532c0.186,6.22,0.445,12.202,0.897,16.908
		c0.512,5.819,1.169,9.684,1.169,9.684s0.574-3.879,0.998-9.707c0.379-4.716,0.523-10.705,0.6-16.932
		c1.735,1.631,3.448,3.24,5.103,4.781c2.629,2.492,5.306,4.623,7.499,6.545c4.471,3.747,7.667,6.033,7.667,6.033
		s-2.339-3.16-6.169-7.564C248.688,137.033,246.511,134.404,243.989,131.801z">
	  <set attributeName="display" to="block" begin="goldstart.begin+.2s"/>
	</path>
	
<!-- 4 -->
	<path display="none" fill="#d0a761" d="M143.845,227.189c-1.581-1.617-3.223-3.309-4.887-5.023c2.388-0.073,4.745-0.145,7.006-0.215
		c3.634-0.112,7.025-0.494,9.929-0.675c5.813-0.519,9.695-1.165,9.695-1.165s-3.879-0.575-9.703-0.986
		c-2.912-0.126-6.321-0.454-9.958-0.506c-2.258-0.025-4.612-0.058-6.994-0.091c1.64-1.739,3.257-3.457,4.802-5.11
		c2.487-2.634,4.612-5.317,6.534-7.505c3.748-4.478,6.029-7.668,6.029-7.668s-3.149,2.34-7.566,6.164
		c-2.153,1.969-4.782,4.146-7.38,6.684c-1.62,1.572-3.307,3.215-5.018,4.879c-0.075-2.386-0.147-4.741-0.214-7.001
		c-0.119-3.63-0.487-7.027-0.681-9.932c-0.513-5.809-1.16-9.683-1.16-9.683s-0.575,3.878-0.985,9.701
		c-0.137,2.909-0.465,6.318-0.506,9.956c-0.032,2.247-0.068,4.591-0.1,6.971c-4.535-4.27-8.945-8.327-12.596-11.315
		c-4.481-3.757-7.677-6.027-7.677-6.027s2.339,3.16,6.159,7.565c3.062,3.601,7.188,7.933,11.541,12.385
		c-6.229,0.186-12.207,0.436-16.913,0.9c-5.803,0.521-9.685,1.166-9.685,1.166s3.89,0.58,9.702,0.997
		c4.709,0.379,10.694,0.527,16.918,0.603c-4.264,4.533-8.314,8.939-11.301,12.582c-3.757,4.482-6.038,7.684-6.038,7.684
		s3.159-2.335,7.567-6.17c3.606-3.052,7.94-7.18,12.391-11.529c0.183,6.222,0.433,12.203,0.912,16.912
		c0.498,5.813,1.146,9.683,1.146,9.683s0.587-3.878,1.01-9.714c0.379-4.711,0.53-10.7,0.603-16.93
		c1.734,1.632,3.446,3.241,5.085,4.785c2.642,2.481,5.317,4.623,7.499,6.552c4.483,3.74,7.668,6.026,7.668,6.026
		s-2.329-3.165-6.159-7.564C148.565,232.422,146.376,229.792,143.845,227.189z">
	  <set attributeName="display" to="block" begin="goldstart.begin+.3s"/>
	</path>

<!-- 5 -->
	<path display="none" fill="#d0a761" d="M356.045,225.342c-1.582-1.621-3.224-3.312-4.891-5.025c2.391-0.075,4.75-0.149,7.015-0.224
		c3.629-0.102,7.021-0.477,9.925-0.664c5.816-0.518,9.693-1.159,9.693-1.159s-3.888-0.581-9.698-0.997
		c-2.917-0.132-6.325-0.46-9.963-0.501c-2.259-0.025-4.615-0.059-7.001-0.092c1.635-1.74,3.248-3.458,4.8-5.104
		c2.488-2.641,4.635-5.317,6.545-7.511c3.759-4.472,6.027-7.667,6.027-7.667s-3.149,2.334-7.565,6.164
		c-2.141,1.969-4.769,4.141-7.379,6.679c-1.612,1.575-3.302,3.216-5.018,4.88c-0.074-2.385-0.146-4.739-0.215-6.996
		c-0.106-3.631-0.499-7.03-0.68-9.934c-0.524-5.814-1.159-9.689-1.159-9.689s-0.574,3.879-0.987,9.702
		c-0.138,2.915-0.465,6.323-0.506,9.961c-0.025,2.252-0.058,4.602-0.09,6.986c-4.538-4.276-8.948-8.339-12.604-11.341
		c-4.486-3.748-7.679-6.023-7.679-6.023s2.338,3.154,6.167,7.56c3.044,3.608,7.175,7.944,11.521,12.395
		c-6.221,0.183-12.194,0.433-16.89,0.898c-5.824,0.512-9.696,1.163-9.696,1.163s3.878,0.588,9.714,1.004
		c4.71,0.379,10.681,0.523,16.899,0.6c-4.26,4.529-8.312,8.932-11.305,12.584c-3.747,4.478-6.029,7.678-6.029,7.678
		s3.173-2.333,7.555-6.164c3.61-3.057,7.951-7.184,12.406-11.535c0.183,6.224,0.436,12.204,0.897,16.916
		c0.515,5.81,1.16,9.684,1.16,9.684s0.585-3.884,1.01-9.711c0.379-4.711,0.521-10.703,0.599-16.934
		c1.733,1.63,3.443,3.238,5.091,4.781c2.641,2.494,5.315,4.629,7.498,6.551c4.472,3.741,7.68,6.034,7.68,6.034
		s-2.339-3.166-6.182-7.571C360.742,230.568,358.588,227.94,356.045,225.342z">
	  <set attributeName="display" to="block" begin="goldstart.begin+.4s"/>
	</path>

<!-- 6 -->
	<path display="none" fill="#d0a761" d="M42.224,347.047c-1.575-1.617-3.218-3.309-4.882-5.021c2.385-0.075,4.743-0.146,7.004-0.217
		c3.633-0.108,7.024-0.488,9.94-0.674c5.802-0.52,9.683-1.165,9.683-1.165s-3.88-0.575-9.702-0.987
		c-2.915-0.126-6.322-0.453-9.95-0.499c-2.268-0.025-4.624-0.061-7.015-0.096c1.636-1.739,3.249-3.458,4.802-5.112
		c2.5-2.638,4.635-5.31,6.546-7.492c3.757-4.483,6.027-7.679,6.027-7.679s-3.148,2.34-7.564,6.169
		c-2.144,1.969-4.771,4.141-7.37,6.678c-1.627,1.576-3.318,3.219-5.031,4.884c-0.075-2.384-0.149-4.74-0.224-6.994
		c-0.095-3.642-0.478-7.033-0.668-9.944c-0.501-5.808-1.172-9.69-1.172-9.69s-0.563,3.891-0.975,9.708
		c-0.136,2.921-0.454,6.318-0.505,9.955c-0.032,2.25-0.06,4.596-0.09,6.976c-4.537-4.274-8.955-8.333-12.604-11.325
		c-4.472-3.752-7.68-6.022-7.68-6.022s2.34,3.155,6.158,7.554c3.07,3.608,7.19,7.947,11.531,12.396
		c-6.215,0.186-12.187,0.443-16.9,0.903c-5.803,0.507-9.684,1.164-9.684,1.164s3.879,0.586,9.712,0.997
		c4.71,0.384,10.682,0.529,16.909,0.606c-4.266,4.532-8.316,8.936-11.302,12.583c-3.757,4.471-6.029,7.684-6.029,7.684
		s3.15-2.339,7.567-6.169c3.591-3.062,7.93-7.183,12.383-11.538c0.185,6.22,0.439,12.202,0.908,16.913
		c0.501,5.814,1.162,9.678,1.162,9.678s0.573-3.879,1.007-9.706c0.37-4.713,0.521-10.695,0.594-16.923
		c1.735,1.63,3.445,3.239,5.083,4.781c2.642,2.489,5.318,4.613,7.501,6.553c4.482,3.74,7.678,6.021,7.678,6.021
		s-2.34-3.16-6.16-7.565C46.946,352.286,44.767,349.658,42.224,347.047z">
	  <set attributeName="display" to="block" begin="goldstart.begin+.5s"/>
	</path>

<!-- 7 -->
	<path display="none" fill="#d0a761" d="M245.877,349.352c-1.572-1.616-3.216-3.306-4.881-5.019c2.388-0.074,4.742-0.147,7.004-0.218
		c3.629-0.108,7.01-0.489,9.926-0.676c5.816-0.513,9.696-1.159,9.696-1.159s-3.891-0.581-9.702-0.991
		c-2.927-0.134-6.336-0.455-9.962-0.502c-2.261-0.024-4.618-0.059-7.003-0.094c1.64-1.739,3.258-3.458,4.804-5.112
		c2.486-2.641,4.623-5.311,6.534-7.5c3.757-4.477,6.049-7.666,6.049-7.666s-3.15,2.334-7.565,6.164
		c-2.153,1.968-4.794,4.134-7.38,6.672c-1.627,1.58-3.321,3.222-5.034,4.887c-0.075-2.389-0.146-4.746-0.22-7.004
		c-0.107-3.63-0.487-7.016-0.658-9.931c-0.524-5.809-1.169-9.69-1.169-9.69s-0.566,3.884-1,9.706
		c-0.125,2.905-0.452,6.313-0.483,9.95c-0.032,2.256-0.068,4.603-0.105,6.981c-4.534-4.274-8.943-8.33-12.613-11.324
		c-4.472-3.751-7.678-6.028-7.678-6.028s2.34,3.161,6.182,7.566c3.05,3.603,7.179,7.94,11.524,12.39
		c-6.226,0.185-12.203,0.437-16.907,0.898c-5.827,0.517-9.696,1.163-9.696,1.163s3.902,0.587,9.726,0.999
		c4.71,0.383,10.69,0.528,16.908,0.607c-4.271,4.53-8.318,8.934-11.314,12.587c-3.759,4.471-6.03,7.678-6.03,7.678
		s3.174-2.328,7.567-6.169c3.61-3.052,7.947-7.175,12.389-11.524c0.19,6.223,0.444,12.194,0.905,16.899
		c0.502,5.826,1.171,9.696,1.171,9.696s0.584-3.889,0.998-9.712c0.388-4.715,0.525-10.706,0.601-16.933
		c1.734,1.631,3.448,3.241,5.088,4.781c2.652,2.494,5.328,4.625,7.498,6.541c4.475,3.751,7.666,6.032,7.666,6.032
		s-2.335-3.154-6.154-7.564C250.586,354.584,248.421,351.956,245.877,349.352z">
	  <set attributeName="display" to="block" begin="goldstart.begin+.6s"/>
	</path>

<!-- 8 -->
	<path display="none" fill="#d0a761" d="M458.078,347.505c-1.572-1.62-3.213-3.311-4.877-5.022c2.385-0.073,4.734-0.147,6.986-0.222
		c3.645-0.107,7.035-0.487,9.949-0.669c5.805-0.524,9.674-1.165,9.674-1.165s-3.879-0.58-9.701-0.992
		c-2.916-0.133-6.312-0.454-9.947-0.5c-2.26-0.025-4.611-0.061-7-0.096c1.633-1.738,3.246-3.457,4.783-5.106
		c2.512-2.639,4.635-5.311,6.559-7.499c3.748-4.483,6.027-7.678,6.027-7.678s-3.16,2.334-7.578,6.174
		c-2.131,1.964-4.77,4.13-7.355,6.675c-1.623,1.581-3.318,3.225-5.037,4.892c-0.072-2.389-0.15-4.747-0.219-7.004
		c-0.107-3.637-0.473-7.027-0.658-9.943c-0.521-5.81-1.172-9.69-1.172-9.69s-0.584,3.889-0.973,9.714
		c-0.15,2.914-0.465,6.312-0.529,9.942c-0.023,2.253-0.053,4.601-0.086,6.978c-4.533-4.271-8.947-8.324-12.598-11.321
		c-4.473-3.752-7.676-6.023-7.676-6.023s2.338,3.155,6.168,7.56c3.051,3.606,7.164,7.939,11.514,12.389
		c-6.219,0.185-12.191,0.439-16.896,0.904c-5.812,0.513-9.693,1.165-9.693,1.165s3.889,0.58,9.725,0.998
		c4.711,0.38,10.686,0.527,16.906,0.604c-4.268,4.529-8.324,8.936-11.312,12.584c-3.758,4.472-6.025,7.68-6.025,7.68
		s3.16-2.335,7.553-6.165c3.607-3.055,7.945-7.179,12.404-11.527c0.191,6.221,0.439,12.193,0.898,16.904
		c0.502,5.814,1.158,9.689,1.158,9.689s0.586-3.884,1.01-9.712c0.371-4.713,0.521-10.707,0.594-16.938
		c1.734,1.634,3.445,3.248,5.098,4.791c2.641,2.489,5.316,4.62,7.5,6.552c4.471,3.741,7.666,6.022,7.666,6.022
		s-2.328-3.16-6.158-7.57C462.789,352.736,460.609,350.102,458.078,347.505z">
	  <set attributeName="display" to="block" begin="goldstart.begin+.7s"/>
	</path>
	
<!-- 9 -->
	<path display="none" fill="#d0a761" d="M145.756,444.747c-1.582-1.622-3.225-3.313-4.892-5.027c2.386-0.072,4.739-0.146,6.991-0.222
		c3.642-0.102,7.033-0.488,9.938-0.664c5.803-0.525,9.694-1.17,9.694-1.17s-3.889-0.575-9.713-0.982
		c-2.915-0.137-6.311-0.459-9.948-0.505c-2.263-0.027-4.611-0.062-6.993-0.097c1.635-1.737,3.246-3.453,4.791-5.104
		c2.487-2.645,4.623-5.315,6.534-7.505c3.767-4.471,6.05-7.666,6.05-7.666s-3.171,2.339-7.577,6.163
		c-2.141,1.97-4.769,4.142-7.368,6.68c-1.622,1.573-3.319,3.218-5.036,4.886c-0.074-2.39-0.145-4.746-0.217-7.008
		c-0.111-3.633-0.477-7.022-0.67-9.927c-0.514-5.814-1.16-9.689-1.16-9.689s-0.576,3.879-0.997,9.695
		c-0.127,2.915-0.456,6.324-0.505,9.961c-0.02,2.256-0.05,4.601-0.085,6.978c-4.534-4.27-8.941-8.333-12.611-11.326
		c-4.472-3.753-7.668-6.022-7.668-6.022s2.328,3.154,6.171,7.57c3.049,3.596,7.167,7.933,11.52,12.378
		c-6.217,0.187-12.197,0.443-16.905,0.903c-5.813,0.513-9.692,1.164-9.692,1.164s3.899,0.587,9.725,0.999
		c4.71,0.384,10.692,0.525,16.912,0.6c-4.271,4.533-8.331,8.939-11.318,12.589c-3.748,4.483-6.018,7.679-6.018,7.679
		s3.161-2.328,7.555-6.164c3.607-3.056,7.939-7.184,12.389-11.528c0.19,6.222,0.443,12.198,0.904,16.899
		c0.5,5.824,1.17,9.689,1.17,9.689s0.588-3.879,0.998-9.707c0.38-4.716,0.524-10.706,0.6-16.934c1.732,1.63,3.447,3.238,5.103,4.783
		c2.638,2.493,5.303,4.617,7.497,6.55c4.461,3.746,7.67,6.028,7.67,6.028s-2.34-3.16-6.173-7.565
		C150.456,449.979,148.277,447.344,145.756,444.747z">
	  <set attributeName="display" to="block" begin="goldstart.begin+.8s"/>
	</path>
	
<!-- 10 -->
	<path display="none" fill="#d0a761" d="M357.945,442.892c-1.581-1.624-3.224-3.312-4.888-5.022c2.386-0.074,4.741-0.148,6.996-0.226
		c3.634-0.102,7.035-0.476,9.939-0.658c5.825-0.524,9.684-1.17,9.684-1.17s-3.878-0.569-9.701-0.986
		c-2.903-0.137-6.312-0.459-9.95-0.5c-2.26-0.028-4.612-0.064-7.001-0.099c1.635-1.738,3.25-3.456,4.789-5.108
		c2.499-2.633,4.636-5.312,6.569-7.503c3.734-4.473,6.026-7.669,6.026-7.669s-3.17,2.335-7.577,6.17
		c-2.142,1.964-4.781,4.136-7.369,6.679c-1.625,1.572-3.318,3.215-5.032,4.881c-0.071-2.389-0.146-4.749-0.22-7.004
		c-0.107-3.625-0.487-7.022-0.659-9.931c-0.523-5.81-1.169-9.69-1.169-9.69s-0.587,3.878-0.985,9.702
		c-0.15,2.914-0.468,6.317-0.508,9.961c-0.031,2.249-0.062,4.595-0.098,6.976c-4.534-4.271-8.945-8.331-12.587-11.324
		c-4.482-3.753-7.7-6.03-7.7-6.03s2.339,3.16,6.17,7.561c3.061,3.609,7.18,7.945,11.532,12.396
		c-6.222,0.186-12.195,0.438-16.902,0.903c-5.813,0.508-9.685,1.166-9.685,1.166s3.868,0.573,9.701,0.997
		c4.71,0.384,10.696,0.524,16.922,0.601c-4.271,4.532-8.329,8.939-11.315,12.588c-3.749,4.474-6.03,7.679-6.03,7.679
		s3.161-2.339,7.566-6.163c3.607-3.06,7.937-7.184,12.386-11.529c0.188,6.218,0.449,12.198,0.909,16.895
		c0.511,5.825,1.168,9.695,1.168,9.695s0.575-3.884,0.999-9.714c0.369-4.716,0.52-10.708,0.592-16.938
		c1.737,1.635,3.455,3.246,5.1,4.788c2.638,2.494,5.315,4.623,7.497,6.546c4.483,3.752,7.666,6.039,7.666,6.039
		s-2.338-3.173-6.156-7.577C362.653,448.13,360.476,445.496,357.945,442.892z">
	  <set attributeName="display" to="block" begin="goldstart.begin+.9s"/>
	</path>

<!-- 11 -->
	<path display="none" fill="#d0a761" d="M43.992,549.339c-1.572-1.619-3.216-3.311-4.886-5.022c2.388-0.073,4.745-0.146,6.999-0.217
		c3.643-0.112,7.034-0.491,9.939-0.676c5.803-0.518,9.684-1.168,9.684-1.168s-3.88-0.564-9.703-0.986
		c-2.915-0.127-6.324-0.455-9.95-0.494c-2.258-0.032-4.612-0.067-6.999-0.104c1.634-1.737,3.247-3.455,4.797-5.107
		c2.487-2.637,4.623-5.309,6.536-7.496c3.756-4.472,6.048-7.665,6.048-7.665s-3.17,2.338-7.586,6.161
		c-2.131,1.964-4.759,4.138-7.371,6.679c-1.615,1.575-3.308,3.221-5.025,4.891c-0.077-2.391-0.149-4.748-0.216-7.007
		c-0.109-3.631-0.489-7.021-0.682-9.938c-0.502-5.814-1.149-9.689-1.149-9.689s-0.574,3.885-0.995,9.708
		c-0.126,2.907-0.455,6.312-0.505,9.948c-0.019,2.259-0.05,4.607-0.085,6.99c-4.533-4.276-8.936-8.333-12.6-11.335
		c-4.483-3.75-7.69-6.025-7.69-6.025s2.338,3.158,6.181,7.563c3.043,3.604,7.163,7.94,11.518,12.389
		c-6.216,0.188-12.195,0.443-16.9,0.904c-5.815,0.513-9.695,1.158-9.695,1.158s3.89,0.587,9.724,1.003
		c4.714,0.38,10.695,0.524,16.914,0.602c-4.271,4.53-8.332,8.935-11.319,12.587c-3.757,4.473-6.028,7.674-6.028,7.674
		s3.172-2.326,7.565-6.156c3.608-3.056,7.937-7.179,12.385-11.525c0.187,6.218,0.447,12.189,0.909,16.896
		c0.501,5.814,1.169,9.689,1.169,9.689s0.576-3.885,0.997-9.707c0.381-4.721,0.525-10.71,0.602-16.936
		c1.731,1.631,3.444,3.24,5.092,4.784c2.649,2.493,5.314,4.619,7.485,6.546c4.484,3.744,7.691,6.031,7.691,6.031
		s-2.34-3.16-6.171-7.57C48.703,554.57,46.527,551.935,43.992,549.339z">
	  <set attributeName="display" to="block" begin="goldstart.begin+1s"/>
	</path>

<!-- 12 -->
	<path display="none" fill="#d0a761" d="M247.648,551.642c-1.58-1.62-3.226-3.311-4.89-5.021c2.384-0.077,4.741-0.15,7.009-0.22
		c3.621-0.108,7.025-0.487,9.927-0.678c5.816-0.511,9.684-1.157,9.684-1.157s-3.876-0.574-9.701-0.986
		c-2.903-0.13-6.312-0.465-9.962-0.506c-2.253-0.023-4.608-0.058-6.996-0.092c1.638-1.742,3.257-3.464,4.796-5.115
		c2.5-2.639,4.624-5.308,6.556-7.493c3.747-4.471,6.028-7.672,6.028-7.672s-3.173,2.338-7.565,6.158
		c-2.156,1.974-4.783,4.146-7.382,6.684c-1.62,1.575-3.311,3.218-5.022,4.884c-0.073-2.386-0.15-4.74-0.231-7.002
		c-0.096-3.63-0.476-7.026-0.658-9.931c-0.524-5.81-1.169-9.69-1.169-9.69s-0.575,3.885-0.975,9.708
		c-0.15,2.909-0.467,6.317-0.506,9.949c-0.031,2.247-0.067,4.594-0.102,6.974c-4.534-4.271-8.943-8.323-12.595-11.312
		c-4.481-3.758-7.677-6.034-7.677-6.034s2.327,3.156,6.157,7.562c3.062,3.607,7.188,7.943,11.532,12.394
		c-6.228,0.189-12.206,0.439-16.913,0.905c-5.803,0.506-9.673,1.158-9.673,1.158s3.878,0.586,9.702,1.003
		c4.71,0.38,10.687,0.526,16.914,0.605c-4.268,4.526-8.326,8.927-11.32,12.577c-3.733,4.479-6.017,7.678-6.017,7.678
		s3.161-2.332,7.554-6.162c3.608-3.051,7.949-7.174,12.401-11.522c0.189,6.22,0.439,12.194,0.891,16.905
		c0.523,5.812,1.171,9.684,1.171,9.684s0.574-3.877,0.998-9.713c0.38-4.715,0.524-10.707,0.6-16.936
		c1.737,1.633,3.453,3.242,5.102,4.792c2.64,2.49,5.293,4.615,7.5,6.546c4.483,3.738,7.667,6.023,7.667,6.023
		s-2.34-3.152-6.17-7.562C252.37,556.875,250.181,554.24,247.648,551.642z">
	  <set attributeName="display" to="block" begin="goldstart.begin+1.1s"/>
	</path>
	
<!-- 13 -->
	<path display="none" fill="#d0a761" d="M147.514,647.033c-1.58-1.621-3.222-3.309-4.888-5.02c2.39-0.074,4.748-0.146,7.009-0.219
		c3.632-0.111,7.013-0.49,9.928-0.676c5.814-0.514,9.694-1.164,9.694-1.164s-3.899-0.576-9.7-0.982
		c-2.925-0.139-6.325-0.463-9.972-0.51c-2.253-0.027-4.605-0.061-6.991-0.094c1.637-1.738,3.254-3.453,4.8-5.105
		c2.478-2.639,4.612-5.312,6.544-7.502c3.748-4.475,6.029-7.67,6.029-7.67s-3.16,2.332-7.567,6.174
		c-2.151,1.961-4.78,4.131-7.378,6.672c-1.619,1.57-3.311,3.211-5.025,4.877c-0.075-2.387-0.148-4.74-0.23-7.002
		c-0.086-3.629-0.476-7.025-0.659-9.93c-0.523-5.814-1.157-9.684-1.157-9.684s-0.574,3.883-0.999,9.701
		c-0.126,2.902-0.465,6.311-0.494,9.947c-0.032,2.254-0.067,4.604-0.101,6.988c-4.534-4.273-8.94-8.332-12.592-11.332
		c-4.483-3.752-7.69-6.027-7.69-6.027s2.326,3.158,6.168,7.564c3.052,3.604,7.182,7.941,11.534,12.391
		c-6.225,0.186-12.199,0.438-16.915,0.9c-5.814,0.514-9.673,1.17-9.673,1.17s3.878,0.584,9.701,0.994
		c4.71,0.379,10.695,0.525,16.914,0.604c-4.26,4.523-8.314,8.932-11.317,12.58c-3.748,4.482-6.03,7.689-6.03,7.689
		s3.161-2.338,7.567-6.172c3.615-3.053,7.948-7.178,12.398-11.525c0.187,6.219,0.434,12.199,0.904,16.906
		c0.502,5.811,1.161,9.682,1.161,9.682s0.585-3.885,0.998-9.713c0.388-4.709,0.526-10.697,0.605-16.926
		c1.731,1.631,3.447,3.24,5.095,4.779c2.63,2.488,5.304,4.623,7.499,6.547c4.472,3.752,7.667,6.031,7.667,6.031
		s-2.328-3.164-6.169-7.57C152.212,652.265,150.057,649.64,147.514,647.033z">
	  <set attributeName="display" to="block" begin="goldstart.begin+1.2s"/>
	</path>

</svg>
