<?xml version="1.0" encoding="utf-8"?>
<!-- Generator: Adobe Illustrator 16.0.4, SVG Export Plug-In . SVG Version: 6.00 Build 0)  -->
<!DOCTYPE svg PUBLIC "-//W3C//DTD SVG 1.1//EN" "http://www.w3.org/Graphics/SVG/1.1/DTD/svg11.dtd">
<svg version="1.1" id="Ebene_1" xmlns="http://www.w3.org/2000/svg" xmlns:xlink="http://www.w3.org/1999/xlink" x="0px" y="0px"
	 width="270px" height="426px" viewBox="0 0 270 426" enable-background="new 0 0 270 426" xml:space="preserve">
<g>
	<g>
		<defs>
			<rect id="SVGID_1_" x="0.833" y="0.154" width="268.333" height="425.691"/>
		</defs>
		<clipPath id="SVGID_2_">
			<use xlink:href="#SVGID_1_"  overflow="visible"/>
		</clipPath>
		<path clip-path="url(#SVGID_2_)" fill="#000" d="M185.046,281.275l-38.5-30.172L147.033,62.7l10.869-8.243l27.645,27.579
			L185.046,281.275z M119.108,83.847l22.808-17.281l-0.443,180.538l-22.706-17.802L119.108,83.847z M59.656,359.76
			c-31.455-8.518-54.158-32.597-53.017-64.938c1.05-29.65,29.183-32.375,53.256-29.211L59.656,359.76z M244.414,51.073l-0.307-0.027
			l-39.418-40.053l-47.222,37.379l-38.333,29.07l0.051-24.688c0,0-0.013-17.633,0.021-24.941
			c0.014-7.328-7.967-17.004-20.299-16.037c-12.322,0.954-68.938,4.495-72.611,3.821c-3.653-0.67-9.956-4.129-9.27-15.441
			l-3.555,0.427c0,0-2.85,32.3-0.225,45.305c2.638,12.985,5.957,27.307,20.571,27.334l26.524,0.059l-0.09,48.812l-49.567,37.539
			l3.101,4.087l46.451-35.215v2.168l-0.142,50.301L60,223.354C5.953,238.493-22.167,310.51,24.3,361.26
			c8.449,9.211,20.293,19.411,35.294,25.01l-0.099,39.576l58.856-19.529l0.035-24.909c17.752-9.318,30.646-24.308,39.86-41.023
			l-2.752-1.217c-11.955,8.826-24.514,14.987-37.058,18.881l0.13-50.907l25.629,19.09l49.098-38.485l-0.014-0.021l50.637-38.869
			l0.373-152.705l24.877-19.649l-24.754-25.14v-0.289H244.414z"/>
	</g>
</g>
</svg>
